<svg height="230.783166" viewBox="0 0 184.32 97.698" width="433.307168" xmlns="http://www.w3.org/2000/svg" xmlns:xlink="http://www.w3.org/1999/xlink"><clipPath id="a"><path d="m0 792h612v-792h-612z"/></clipPath><mask id="b" height="1" maskUnits="userSpaceOnUse" width="1" x="0" y="0"><g clip-path="url(#c)"><g clip-path="url(#d)"><g clip-path="url(#e)"></g></g></g></mask><clipPath id="c"><path d="m235.43 788.42h138.48v-72.72h-138.48z"/></clipPath><clipPath id="d"><path d="m234.43 789.42h140.48v-74.72h-140.48z"/></clipPath><clipPath id="e"><path d="m235.43 715.7h138.48v72.72h-138.48z"/></clipPath><clipPath id="f"><path d="m237.43 786.42h134.44v-68.554h-134.44z"/></clipPath><radialGradient id="g" cx="0" cy="0" gradientTransform="matrix(43.889297 0 0 -43.059006 298.29834 744.73389)" gradientUnits="userSpaceOnUse" r="1"><stop offset="0" stop-color="#a8e3fa"/><stop offset="1" stop-color="#4ebdc7"/></radialGradient><clipPath id="h"><path d="m281.24 789.64h57.583v-23.17h-57.583z"/></clipPath><linearGradient id="i"><stop offset="0" stop-color="#fff"/><stop offset="1" stop-color="#4ebecd"/></linearGradient><radialGradient id="j" cx="0" cy="0" gradientTransform="matrix(22.005035 0 0 -21.588394 310.03613 778.06006)" gradientUnits="userSpaceOnUse" r="1" xlink:href="#i"/><clipPath id="k"><path d="m232.94 778.58h40.494v-38.415h-40.494z"/></clipPath><radialGradient id="l" cx="0" cy="0" gradientTransform="matrix(24.720734 0 0 -24.25267 238.02197 780.93213)" gradientUnits="userSpaceOnUse" r="1" xlink:href="#i"/><clipPath id="m"><path d="m275.54 721.7h4.64v-1.124h-4.64z"/></clipPath><clipPath id="n"><path d="m248.09 769.08h127.57v-54.875h-127.57z"/></clipPath><clipPath id="o"><path d="m232.26 776.11h143.25v-57.982h-143.25z"/></clipPath><clipPath id="p"><path d="m315.02 743.53h1.02v-1.006h-1.02z"/></clipPath><clipPath id="q"><path d="m316.04 742.9h.004v-.005h-.004z"/></clipPath><clipPath id="r"><path d="m311.23 778.67h19.574v-16.849h-19.574z"/></clipPath><clipPath id="s"><path d="m245.51 731.72h12.689v-12.402h-12.689z"/></clipPath><clipPath id="t"><path d="m258.88 738.84h8.587v-14.304h-8.587z"/></clipPath><clipPath id="u"><path d="m267.19 740.54h16.661v-16.841h-16.661z"/></clipPath><clipPath id="v"><path d="m276.59 741.46h8.645v-14.517h-8.645z"/></clipPath><clipPath id="w"><path d="m284.75 738.26h9.943v-14.022h-9.943z"/></clipPath><clipPath id="x"><path d="m293.95 741.35h9.42v-14.246h-9.42z"/></clipPath><clipPath id="y"><path d="m302.88 739.11h7.663v-13.9h-7.663z"/></clipPath><clipPath id="z"><path d="m310.75 741.97h8.463v-13.97h-8.463z"/></clipPath><clipPath id="A"><path d="m317.8 740.12h9.944v-14.021h-9.944z"/></clipPath><clipPath id="B"><path d="m327.6 742.63h9.225v-14.651h-9.225z"/></clipPath><clipPath id="C"><path d="m337.06 741.1h7.943v-14.022h-7.943z"/></clipPath><clipPath id="D"><path d="m345.23 741.45h8.589v-14.303h-8.589z"/></clipPath><g clip-path="url(#a)" transform="matrix(1.25 0 0 -1.25 -288.27634 988.23071)"><path d="m0 0c.915.015 2.107-.298 3.412-.796-1.355.533-2.56.856-3.412.796" fill="#4ebecd" transform="translate(275.9902 721.6934)"/><path d="m0 0c1.759-.559 3.5-.73 5.084-.544 2.24.26 4.114 1.099 5.503 1.913-2.653-1.455-6.52-2.571-10.587-1.369" fill="#4ebecd" transform="translate(294.0923 713.0425)"/><path d="m0 0c-2.594 3.443-8.031 5.328-16.666 4.376-6.845-.755-10.578-.851-12.369 4.988-1.604 5.231-5.39 12.26-12.734 12.764-11.219.766-18.249-5.887-22.076-11.299-2.92-4.126-4.112-6.209-8.285-8.509-4.512-2.479-10.697-3.086-16.344-1.684-2.569.642-6.13 2.422-8.26 4.356-1.712 1.551-2.878 2.954-5.559 4.463-4.412 2.494-11.536 2.76-16.252.821-3.741-1.539-8.171-4.642-9.949-8.374-1.941-4.075-2.14-8.042-8.621-10.907-5.273-2.329-5.548-6.869-5.351-9.588.372-5.082 5.737-9.545 8.543-10.936 3.693-1.831 3.905-5.472 2.892-10.624-.602-3.06.079-6.14 1.865-8.44 1.433-1.837 4.067-5.105 9.656-5.645 9.278-.909 15.683 7.459 21.056 7.535.852.06 2.057-.262 3.412-.796 4.814-1.842 11.204-6.23 11.204-6.23 1.144-.719 2.319-1.256 3.486-1.625 4.067-1.202 7.934-.085 10.587 1.37 1.138.668 1.954 1.322 2.369 1.632 1.774 1.316 6.767 7.799 17.719 7.512 11.056-.295 20.116-4.549 22.71-5.074 4.774-.971 11.801-1.456 15.132 4.702 1.522 2.828 1.985 5.135 1.553 7.202-.432 2.02-3.102 6.468-2.504 10.165.358 2.217 1.826 5.893 5.377 8.3 1.303.876 6.124 3.329 7.613 5.212 3.353 4.276 2.882 10.208-.214 14.333" fill="#4ebecd" transform="translate(374.4443 768.396)"/><g mask="url(#b)"><g clip-path="url(#f)"><path d="m355.33 769.13c-6.344-.634-7.852-.273-11.211 3.748-2.909 3.48 1.41 13.555-12.47 13.546-10.411-.007-16.209-8.771-19.773-13.163-2.72-3.348-5.285-4.788-9.161-6.663-4.189-2.023-9.925-2.533-15.152-1.417-2.381.513-5.675 1.943-7.641 3.502-1.582 1.249-2.656 2.38-5.134 3.593-7.213 5.115-19.968 7.12-24.306-6.198-1.815-3.305-2.011-6.516-8.028-8.856-4.896-1.902-5.164-5.581-4.994-7.779.328-4.114 5.288-7.709 7.882-8.826 3.416-1.468 3.601-4.417 2.645-8.591-.57-2.481.052-4.969 1.699-6.824 1.322-1.482 3.752-4.121 8.932-4.538 8.592-.706 12.231 4.009 17.208 4.092 3.976.066 14.981-5.862 14.981-5.862 7.23-3.22 13.68 2.054 16.109 3.464 1.82 1.058 6.301 6.335 16.449 6.139 10.242-.204 18.627-3.618 21.029-4.035 4.417-.771 10.932-1.141 14.036 3.856 1.422 2.294 1.863 4.161 1.462 5.835-.388 1.632-2.847 5.227-2.279 8.219.336 1.799 1.708 4.776 5.006 6.735 1.213.715 5.692 2.717 7.073 4.244 3.129 3.474 2.715 8.273-.142 11.603-2.388 2.777-6.21 4.975-14.22 4.176" fill="url(#g)"/></g></g><g clip-path="url(#h)"><path d="m311.55 778.73-.776-1.09c-2.363-3.328-3.79-5.338-7.688-7.46-4.597-2.498-10.832-3.452-16.684-2.079-1.451.343-3.35 1.074-5.154 2.041 2.223-1.462 4.922-2.589 6.838-3.042 5.849-1.372 12.084-.419 16.68 2.079 3.899 2.125 5.326 4.132 7.688 7.46l.778 1.092c3.81 5.315 10.629 11.514 21.493 10.863 1.537-.093 2.896-.48 4.106-1.062-1.584 1.13-3.493 1.923-5.791 2.061-10.862.651-17.68-5.546-21.49-10.863" fill="url(#j)"/></g><g clip-path="url(#k)"><path d="m256.32 777.41c-3.534-1.422-7.846-4.388-9.504-7.81-.377-.778-.698-1.57-1.008-2.341-.938-2.344-2.15-3.966-4.768-6.003-.919-.716-1.655-1.5-3.098-2.372-1.029-.624-2.069-1.463-2.739-2.098-2.494-2.368-2.301-5.462-2.226-6.644.275-4.34 5.125-8.591 7.754-9.976-2.623 1.915-5.89 5.392-6.111 8.932-.097 1.5-.382 6.07 4.865 8.34 5.382 2.334 6.695 5.61 7.965 8.775.312.77.631 1.566 1.007 2.343 1.659 3.421 5.971 6.387 9.506 7.81 4.589 1.849 11.351 1.466 15.471-.862-.448.325-.947.649-1.52.981-4.108 2.385-10.96 2.791-15.594.925" fill="url(#l)"/></g><g clip-path="url(#m)" opacity=".139999"><path d="m0 0c-.15-.009-.299-.027-.453-.049 1.239-.019 2.889-.45 4.641-1.068-1.669.719-3.179 1.187-4.188 1.117" fill="#224093" transform="translate(275.9902 721.6934)"/></g><g clip-path="url(#n)" opacity=".139999"><path d="m0 0c.304.194.718.557 1.239 1.014 2.637 2.311 7.55 6.617 16.775 6.38 8.422-.216 15.574-2.612 19.846-4.044 1.307-.438 2.338-.783 2.944-.902 7.271-1.439 12.146-.024 14.494 4.21 1.346 2.426 1.798 4.349 1.43 6.052-.104.47-.429 1.259-.771 2.09-.943 2.29-2.229 5.421-1.741 8.355.441 2.691 2.19 6.409 5.77 8.77l1.62.951c1.801 1.017 4.811 2.723 5.826 3.972 1.341 1.662 2.064 3.663 2.076 5.787.02 2.322-.796 4.67-2.295 6.611-.816 1.059-1.937 1.926-3.315 2.592.634-.467 1.184-.992 1.64-1.583 1.498-1.94 2.314-4.287 2.295-6.609-.016-2.124-.735-4.125-2.077-5.787-1.015-1.253-4.027-2.955-5.821-3.972l-1.627-.951c-3.575-2.361-5.328-6.079-5.77-8.769-.489-2.934.803-6.067 1.744-8.354.343-.833.666-1.623.769-2.091.37-1.703-.082-3.627-1.427-6.055-2.348-4.234-7.228-5.649-14.496-4.206-.607.118-1.634.462-2.94.899-4.275 1.432-11.427 3.828-19.852 4.045-9.223.235-14.133-4.068-16.774-6.38-.52-.457-.935-.818-1.238-1.016-3.477-2.24-8.913-4.815-15.914-1.319-.427.237-10.5 5.791-14.871 5.723-2.299-.032-4.668-1.21-7.415-2.575-3.855-1.918-8.227-4.091-13.588-3.578-1.857.172-3.364.651-4.599 1.262 1.472-1.075 3.481-2.013 6.273-2.274 5.364-.511 9.734 1.663 13.588 3.577 2.744 1.366 5.119 2.546 7.417 2.577.053.001.111-.002.167-.004.154.022.303.041.453.05 1.009.07 2.519-.399 4.188-1.117 4.548-1.612 9.758-4.485 10.062-4.651 7.003-3.498 12.437-.925 15.915 1.32" fill="#224093" transform="translate(306.1553 717.2456)"/></g><g clip-path="url(#o)" opacity=".360001"><path d="m0 0c-.189-.566-.727-1.825-2.267-4.626-.195-.36-.391-.596-1.169-.346-.453.14-.869.393-1.265.687-.016.178-.039.558.054 1.344.125 1.066.394 2.212.785 3.394.277.844.504 1.293.654 1.547.066-.015.155-.032.155-.032l1.657-.678c.017-.005 1.04-.406 1.557-.606-.007-.135-.044-.34-.161-.684m-18.867-14.022-1.936-.261s-1.519-.193-1.53-.194c-.178 1.224-.335 2.285-.523 3.565 1.621.143 4.12.356 4.12.356 2.74.188 3.933.161 4.507.112.129-.349.312-.899.548-1.765 0 0 .062-.256.141-.562-1.829-.54-3.619-.984-5.327-1.251m-3.414 18.318s.144.006.269.022c.175-.452.465-1.417.826-3.613.213-1.319.23-1.948.227-2.245-.16-.061-.42-.133-.903-.209 0 0-.765-.089-.916-.106-.259 1.561-.697 4.273-.947 5.81.724.165 1.444.341 1.444.341m-6.606-27.1-7.945.184c.367.022.75.051 1.156.087l3.725.445 2.303.338.732.629.708-1.648zm-9.271 7.171c.216.013 4.705.657 6.881 1.343 1.221.39 1.978.668 2.471.909l.277-1.84-.246.089c-.359.14-.837.168-1.579.094-.08-.001-3.925-.624-3.925-.624-.487-.038-1.055-.523-.98-1.314 0 0 .044-.093.061-.131-.575-.023-1.812-.075-2.625-.109-.125.438-.245 1.057-.335 1.583m-1.071 3.326c-.067.198-.161.469-.161.469l-.171.495c-.002.024-.017.13-.017.13s-.002.06 0 .079c.222.063.605.14 1.288.201l2.078.031c.393-.036.579-.069.702-.088.015-.241.017-.429-.003-.565-.076-.053-.249-.147-.695-.294-.725-.223-1.451-.362-2.238-.433-.407-.038-.644-.038-.783-.025m-3.5-11.102-7.807-1.52-12.806-.596-22.172.222c-.001 0-8.532-.074-13.853-.12.885 1.395 1.296 3 1.21 4.722l3.957.553 1.271 2.247c-.019-.054-1.055 5.008-1.388 6.619 1.729-.109 2.021-.457 4.055-.153 1.058.157 1.961.332 2.72.529-.292-1.789-.435-3.119-.427-4.046.014-.833.508-1.616 1.528-2.397.843-.648 1.807-1.137 2.956-1.503 2.266-.723 4.204-.635 5.761.257 1.124.648 2.243 1.841 3.419 3.645.525.799.996 1.633 1.412 2.491.12-1.418.201-3.245.241-5.47l.112-6.575s-.222-1.074 1.391-.713c1.08.243 3.651.952 5.244 1.399.851.175 1.005 1.795 1.005 1.795l-.309 1.277-.791 4.234c-.159 1.04-.228 1.656-.261 2.035.554.152.886.243 1.533.415.265-.866.573-2.02.902-3.362l.524-2.481.35-1.543c.369-1.211 1.691-.937 2.328-.8 1.333.28 2.266.551 2.92.854.561.25.762.749.801 1.702.166-.713.408-1.53.736-2.509.712-2.014 1.02-2.284 1.985-2.145.514.094 7.602 2.726 11.837 4.027 0 .315.393-.783.647-1.496.444-.504 1.156-.834 2.197-1.003l-2.431.058c-.359-.289-.805-.634-.797-.649m-51.197 19.634c.267.15.827.38 1.958.553.774.109 1.154.063 1.344.02.073-.201.179-.606.311-1.454.162-1.061.147-1.569.123-1.817-.608-.261-1.233-.475-1.878-.573-.546-.08-.948-.047-1.156.068-.076.169-.239.583-.239.583l-.396 1.661c-.093.613-.079.847-.067.959m10.942-6.196c.118 1.001.372 2.084.739 3.199.265.795.474 1.217.617 1.458.063-.014.145-.029.145-.029l1.848-.64c.072-.018.966-.374 1.471-.573-.008-.128-.043-.317-.152-.645-.176-.532-.685-1.72-2.134-4.361-.188-.34-.375-.561-1.108-.327-.424.134-1.103.371-1.475.65-.017.168-.04.524.049 1.268m-24.4-.709-4.756 1.064-2.923.636c-1.96.455-2.599.842-2.79.991-.219 1.291.047 2.03 1.917 2.385 2.233.424 5.475.082 9.664-1.018.514-.132 1.037-.282 1.579-.437l1.851 2.582 1.131-6.216c.168-1.098.312-2.064.433-2.922-1.31 1.275-3.356 2.258-6.106 2.935m116.89-5.749c.103.068.226.147.365.233-.318.022-.694.042-1.145.062 0 0-.84.07-1.428.115.073.406.137.808.137.808.326 1.525.626 2.085.757 2.279.414.003.87-.038 1.43-.157.714-.149 1.294-.325 1.753-.54.018-.004.06-.026.08-.036 0-.041-.149-.872-.149-.872l-.145-.775c-.008-.05-.018-.097-.031-.144 1.973 1.148 4.892 2.849 5.989 4.238.324.409.61.834.861 1.272-.16.044-.324.086-.498.119-.664.141-1.793.223-3.67.276-.876.028-1.512.063-1.996.106.479 1.382 1.308 3.762 1.308 3.762l1.249 3.29.743 1.917-1.471.059-.407.023-2.757.234c-.001-.001-1.574.204-2.821.368.108 1.168-.074 2.069-.61 2.726h-.028c-.211.266-.758.594-2.247 1.3-1.146.554-2.321 1.028-3.499 1.405-3.072.974-5.358 1.129-6.98.462-1.018-.416-2.57-1.521-3.36-3.897-.518-1.573-.979-3.505-1.367-5.738-.126-.763-.225-1.448-.307-2.062l-.107.089c-1.037.471-1.429.658-2.622.903.525.286 1.041.579 1.607.916l.513.508c.51.844.762 1.915.744 3.167 0 0-.323 4.231-.349 4.407-.105.634-.315 1.357-.646 2.156-.583 1.463-1.37 2.44-2.338 2.903-.021.006-1.42.75-1.42.75-.741.394-1.502.604-2.222.621l-.114.003-.038-.012-4.617-.553c-3.571-.566-5.777-1.304-7.757-2.051l-1.583-2.441 1.744-11.568c-.277.309-.593.526-.97.644-1.214.394-2.975.455-5.717.205-3.315-.296-4.733-1.835-5.427-3.103-.207-.373-.92-.244-1.071-1.898-.003.034-.007.064-.016.099-.285 1.879-.527 4.878-.484 5.593.092 1.817.056 3.147-.099 4.185l-.104.736-.746.16c-1.074.236-2.655.151-4.962-.25-.351-.052-.912-.346-1.001-1.361-.435-.05-1.006-.088-1.9-.093-1.594-.021-2.483-.068-2.989-.142-2-.292-3.085-1.901-3.236-2.676-.547-2.731-.301-4.179-.235-5.68-.346.515-.735.867-1.181 1.078-.448.229-1.308.487-3.798.385-1.314-.06-2.444-.193-3.482-.38-.045.276-.526 2.35-.526 2.35l-1.098-.452-2.234-.912c.148 1.266-.053 2.209-.613 2.892l-.002-.002c-.422.852-7.02 4.762-11.909 3.049-.504-.206-.949-.629-1.367-1.308-.468 2.009-1.152 3.408-2.218 3.667-5.276 1.297-13.926-1.222-14.274-1.63l-1.479-1.641-1.084 7.9-1.347.119c-1.873.167-3.749.193-5.622.1-.16-.269-.313-.541-.445-.818-1.94-4.075-2.14-8.042-8.621-10.907-3.163-1.398-4.527-3.593-5.071-5.712.181-.288.368-.575.567-.858 1.195-1.646 3.354-2.854 6.443-3.605l4.062-.867 2.822-.577c1.448-.321 2.034-.653 2.253-.808-.097-.365-1.041-1.03-3.586-1.504-2.457-.473-5.33-.564-8.542-.282l-1.567-1.494c1.851-2.286 4.235-4.036 5.811-4.818 2.177-1.08 3.146-2.787 3.364-5.065l8.23 1.901c.311.07.613.152.907.245l-.083-1.464 1.247-5.062-1.728-9.077 4.461-1.863 11.019-.356c2.94 1.736 5.44 3.434 8.052 3.568 1.728.09 4.909-1.328 7.865-2.936l11.039.915 19.345 1.676c2.644 1.321 6.079 2.324 10.528 2.207 4.491-.118 8.651-.891 12.187-1.802l15.846-.586.699 2.023 1.699 6.721-2.577 13.941-6.898-.776-6.417-.348 12.672 3.319-.437 2.414-.643 3.261c-.133.616-.282 1.206-.443 1.782.507-.256 1.052-.476 1.642-.663 2.404-.768 4.462-.672 6.111.274 1.039.598 1.86 1.36 2.932 2.883.162.225-2.601-9.667-2.601-9.667l2.189-.971c.793-.334 1.57-.639 2.322-.915.855 1.556 2.137 3.153 3.985 4.406" fill="#1959a6" transform="translate(357.5313 765.2803)"/></g><g clip-path="url(#p)" opacity=".360001"><path d="m0 0c-.014.016-.098.254-.208.567-.011.013-.024.025-.036.038-.148.178-.504-.709-.777-.97l.58-.013c.237.19.436.355.441.378" fill="#1959a6" transform="translate(316.041 742.8979)"/></g><g clip-path="url(#q)" opacity=".360001"><path d="m0 0c0-.001-.004-.003-.004-.003.004-.003.004-.001.004.003" fill="#1959a6" transform="translate(316.0449 742.9014)"/></g><g clip-path="url(#r)" opacity=".460007"><path d="m0 0c-.694.181-2.738.932-3.343.945-.432.19-.559.394-1.095-.149-.134-.436.064-.809.207-1.206.329-.92.381-1.847.639-2.762.113-.883-.327-2.138-1.301-2.662-.702-.38-1.602-.285-2.138.102-1.578 1.14-.826 4.129-.842 4.309.288.97.966 2.593.477 2.751-.292.002-.707-.448-.921-.658-.381-.437-1.576-1.175-1.73-1.291-.682-.507-1.329-.888-2.15-.998-1.168-.161-2.466-.291-3.304.73-.5.426-.845 1.414-.594 2.097.44 1.003 1.484 1.78 2.5 2.003 1.359.312 3.433-.02 3.557.023.696-.057 1.832-.323 2.136-.105.89.638-.896 1.066-.896 1.066-.424.045-2.166.961-2.672 1.251-1.082.617-1.919 1.651-2.12 3.033.028.559.486 1.395.997 1.709.433.337 1.417.755 2.298.514 0 0 .77-.393 1.081-.612.506-.428.974-1.166.962-1.304.597-1.068.641-2.271 1.191-3.298.156-.345.457-.384.679-.142.318.566.123 1.556.125 1.797.186 1.147.694 2.909 1.959 3.353.405.21 2.578.447 3.104-1.209.656-1.426-1.176-3.331-1.374-3.578-.106 0-1.172-1.005-1.767-1.268-.25-.193-.41-.228-.478-.581.172-.602.568-.471 1.084-.474.294.028 1.739.422 2.189.641.774.227 1.65.777 2.377.694 0 0 2.717-.457 2.54-2.554.136-.553-.542-1.556-.979-1.92-.618-.301-2.201-.314-2.398-.247m2.542 2.294c-.126.471-.286.801-.737 1.158-1.286 1.018-2.845-.112-4.333-.523-1.172-.278-2.46-.517-3.133.723-.032.11-.075.198-.014.281.134.777 2.078 1.83 2.398 2.14.423.621.789.909 1.139 1.602.229.566.346 1.302-.101 1.687-.472.532-1.139.504-1.866.273-.912-.326-1.058-1.9-1.238-2.281-.264-1.042-.095-1.872-.872-2.693-.322-.288-.674-.167-.988.012-.879.787-.991 2.212-1.437 3.32-.303.865-1.041 1.842-1.866 1.941-.719.064-1.62-.266-2.054-.968-.274-.625-.011-.953.102-1.467.187-.396.352-.496.479-.742.129-.153.504-.582 1.117-.957.628-.278 1.267-.511 1.836-.702.448-.202 1.171-.452 1.554-.801.213-.222.722-.364.707-.72-.076-.432-.377-.876-.754-1.072-.488-.206-2.317-.169-3.2-.093-.885.131-1.82.165-2.736-.054-.832-.204-1.349-.718-1.713-1.375-.246-.404-.057-.908.176-1.197.645-.807 1.34-.733 1.963-.654 1.822.237 2.853.956 3.143 1.175.423.382 1.355 1.008 1.55 1.127.343.248.823.739 1.282.583.242-.094.416-.236.474-.385.189-.594.103-1.054-.108-1.648 0 0-1.014-3.656-.128-4.664.303-.349.96-.575 1.466-.369 1.163.86.87 2.143.683 3.232-.047 1.22-1.067 2.422-.146 3.56 1.033.545 2.341-.321 2.898-.331.27-.073 1.741-.517 2.034-.47.242-.027.614-.081 1.007-.005.38.073 1.483.254 1.416 1.357" fill="#fff" transform="translate(327.4102 767.8999)"/></g><g clip-path="url(#s)" opacity=".460007"><path d="m0 0c-.333.376-1.238 1.607-1.584 1.846-.177.281-.173.447-.705.335-.251-.204-.286-.502-.363-.789-.176-.671-.516-1.235-.728-1.873-.287-.563-1.049-1.129-1.833-1.06-.563.046-1.056.448-1.215.883-.472 1.278 1.167 2.748 1.231 2.859.558.458 1.608 1.154 1.385 1.434-.176.114-.599.008-.808-.033-.399-.108-1.398-.083-1.536-.092-.602-.033-1.135-.011-1.664.243-.749.352-1.565.779-1.652 1.704-.119.442.071 1.157.494 1.461.659.42 1.584.478 2.276.215.921-.338 2.003-1.336 2.098-1.36.386-.301.946-.892 1.213-.884.78.031-.1.973-.1.973-.229.187-.888 1.399-1.07 1.767-.391.78-.468 1.71-.031 2.6.24.318.843.634 1.269.621.389.034 1.137-.103 1.556-.582 0 0 .296-.533.394-.78.127-.444.104-1.057.045-1.138-.08-.858-.535-1.579-.622-2.397-.045-.263.118-.403.344-.346.41.208.693.869.788 1.011.572.597 1.579 1.438 2.501 1.213.318-.031 1.692-.73 1.338-1.907-.185-1.092-2.027-1.504-2.24-1.574-.064.042-1.092-.142-1.55-.066-.223-.017-.334.025-.512-.159-.138-.415.146-.491.449-.694.182-.1 1.19-.424 1.544-.469.544-.164 1.278-.179 1.67-.507 0 0 1.419-1.318.476-2.482-.145-.377-.945-.705-1.343-.75-.49.061-1.421.662-1.515.777m2.418.369c.113.325.151.582.027.963-.346 1.096-1.716 1.034-2.756 1.366-.798.289-1.652.644-1.552 1.633.025.08.034.146.106.174.392.404 1.956.269 2.266.331.499.205.829.232 1.312.501.362.247.722.635.617 1.035-.065.493-.471.733-.989.883-.667.154-1.385-.712-1.644-.869-.571-.51-.804-1.062-1.587-1.248-.308-.042-.466.164-.579.387-.201.805.303 1.685.484 2.508.17.629.126 1.486-.316 1.863-.401.316-1.065.468-1.6.224-.411-.261-.388-.558-.529-.904-.044-.304.011-.428-.012-.62.012-.14.065-.535.27-.994.26-.408.541-.789.801-1.123.182-.29.507-.717.594-1.066.034-.214.28-.494.127-.698-.222-.227-.575-.368-.873-.341-.369.066-1.43.793-1.923 1.181-.464.419-1.003.797-1.63 1.022-.568.201-1.078.099-1.557-.15-.309-.142-.395-.51-.379-.768.061-.729.496-.948.893-1.142 1.173-.566 2.065-.541 2.324-.526.401.064 1.201.078 1.362.068.3.015.781.118.988-.147.106-.156.151-.304.119-.414-.122-.42-.358-.659-.72-.928 0 0-2.063-1.758-1.942-2.691.037-.321.332-.708.712-.785 1.032.058 1.372.925 1.696 1.636.463.736.346 1.837 1.344 2.152.824-.075 1.248-1.09 1.569-1.311.13-.149.817-.976 1.009-1.062.13-.107.331-.284.59-.391.253-.103.974-.421 1.378.251" fill="#fff" transform="translate(255.0205 720.8623)"/></g><path d="m0 0 .716 1.817h.727v-2.565h-.479v2.004h-.011l-.78-2.004h-.354l-.782 2.004h-.012v-2.004h-.477v2.565h.737zm-1.986 1.414h-.799v-2.162h-.506v2.162h-.803v.403h2.108z" fill="#4ebecd" transform="translate(369.334 727.4229)"/><path d="m0 0c-.009.001-.019.002-.026.002-.439.059-1.079.106-2.101.153 0 0-.844.07-1.426.114.07.405.131.808.131.808.327 1.524.628 2.085.763 2.278.412.003.867-.039 1.426-.156.716-.148 1.293-.324 1.755-.542.015-.002.058-.025.079-.034-.002-.042-.148-.871-.148-.871l-.145-.775c-.109-.527-.218-.803-.297-.95-.003-.009-.007-.02-.011-.027m8.213 5.877c-.248.452-.806.765-1.505.981-.208.063-.424.118-.651.164-.668.141-1.796.224-3.674.277-.875.028-1.511.062-1.996.105.482 1.383 1.308 3.763 1.308 3.763l1.252 3.291.741 1.915-1.471.059-.404.023-2.76.234c0-.003-4.319.566-4.319.566l-4.018-19.88 1.055-.446c.965-.405 1.895-.765 2.795-1.087 1.684-.604 3.253-1.058 4.686-1.355 2.046-.425 4.905-.778 6.022 1.021.412.655.9 1.701 1.482 3.196.648 1.702 1.087 3.09 1.337 4.248.302 1.417.454 2.327.12 2.925" fill="#a8ac06" transform="translate(369.6719 750.3975)"/><path d="m0 0c-.284-1.357-.727-1.974-1.3-1.856-.314.067-.879.117-1.698.157-.177.008-.361.016-.561.025-1.12.051-1.825.114-2.144.18-.318.065-.462.158-.452.275.046.544.151 1.124.292 1.764.444 2.081.983 3.119 1.602 3.136.544.026 1.168-.042 1.884-.191.769-.157 1.429-.36 1.991-.612.561-.261.846-.375.787-.65-.035-.174-.088-.509-.181-1.04-.071-.423-.13-.756-.184-1.026-.01-.056-.021-.112-.036-.162m5.498 4.249c-.167.299-.436.679-1.112.818-.04.01-.088.017-.132.027-.63.129-1.681.33-3.277.381-1.704.05-2.843.137-3.429.28.311.97.848 2.644 1.74 5.029.919 2.459 1.306 3.412 1.46 3.83-.41.03-1.09.004-3.2.257-.89.103-1.932.243-3.157.411-.034-.942-.276-2.714-.713-5.345-.449-2.675-.91-5.177-1.407-7.506-.595-2.769-1.087-4.536-1.447-5.276.995-.417 1.951-.786 2.863-1.107 1.596-.564 3.066-.984 4.414-1.262 2.663-.556 4.294-.384 4.861.526.376.598.839 1.595 1.392 3.016.606 1.597.933 2.872 1.184 4.011.225 1.065.155 1.565-.04 1.91" fill="#fff64d" transform="translate(371.9531 751.6958)"/><path d="m0 0c-.186-.564-.728-1.821-2.267-4.623-.195-.362-.393-.595-1.171-.347-.45.141-.866.392-1.258.687-.024.178-.045.559.05 1.346.122 1.063.392 2.212.785 3.393.279.843.503 1.292.654 1.547.068-.015.153-.032.153-.032l1.655-.679c.019-.003 1.044-.405 1.563-.607-.011-.135-.049-.338-.164-.685m6.188 3.216h-.026c-.213.269-.758.594-2.248 1.303-1.147.553-2.322 1.027-3.496 1.401-.041.015-.077.026-.119.038-3.011.94-5.266 1.084-6.865.425-.394-.161-.756-.448-1.097-.877-.537-.676-1.025-1.705-1.507-3.16-.523-1.572-.981-3.504-1.371-5.738-.34-2.069-.511-3.585-.506-4.628.017-.885.54-1.714 1.621-2.541.894-.686 1.916-1.208 3.137-1.595 2.401-.766 4.457-.67 6.109.274 1.191.686 2.376 1.951 3.626 3.866 1.12 1.704 2.013 3.553 2.643 5.473.911 2.748 1.029 4.622.099 5.759" fill="#a8ac06" transform="translate(359.1055 766.9634)"/><path d="m0 0c-.298-.885-1.078-2.496-2.346-4.81-.513-.933-1.338-1.229-2.49-.86-.623.196-1.219.512-1.78.97-.266.212-.343.96-.195 2.22.139 1.19.436 2.404.832 3.606.383 1.161.769 1.92 1.143 2.279.129.127.488.116 1.066-.063.348-.112.93-.344 1.769-.715.82-.337 1.406-.571 1.756-.687.535-.17.613-.823.245-1.94m4.079 2.735c-.193.235-.721.67-1.707 1.133-1.062.518-2.181.976-3.358 1.35-.68.216-1.32.388-1.914.519-1.838.402-3.281.392-4.297-.025-.167-.069-.337-.194-.506-.375-.494-.523-.985-1.519-1.473-2.991-.518-1.565-.957-3.441-1.326-5.582-.329-1.958-.495-3.439-.486-4.442 0-.532.408-1.091 1.19-1.692.78-.598 1.696-1.07 2.79-1.416 2.077-.661 3.824-.616 5.198.179 1.02.585 2.109 1.741 3.263 3.512 1.101 1.682 1.929 3.428 2.526 5.224.771 2.324.76 3.789.1 4.606" fill="#fff64d" transform="translate(361.1367 767.0811)"/><path d="m0 0-1.935-.258s-1.517-.196-1.526-.196c-.183 1.224-.338 2.286-.526 3.564 1.617.145 4.118.357 4.118.357 2.737.189 3.933.162 4.511.113.125-.351.307-.898.545-1.765 0 0 .065-.256.141-.565-1.829-.538-3.616-.983-5.328-1.25m-3.411 18.319s.143.008.265.023c.178-.452.468-1.419.83-3.615.214-1.318.229-1.947.222-2.244-.161-.062-.415-.132-.902-.208 0 0-.764-.091-.917-.108-.258 1.561-.691 4.273-.947 5.811.725.165 1.449.341 1.449.341m15.646-17.852c-.628 2.897-1.57 5.378-2.818 7.355l-.644.553c-1.039.473-2.184.798-3.377 1.044.524.286 1.045.578 1.61.915l.512.51c.513.843.764 1.913.747 3.166 0 0-.326 4.23-.355 4.407-.1.636-.313 1.357-.642 2.154-.585 1.466-1.367 2.442-2.338 2.904-.024.007-1.422.751-1.422.751-.74.395-1.498.603-2.223.62l-.112.003-.037-.009-4.617-.555c-3.574-.564-5.776-1.303-7.755-2.05l-1.584-2.443 4.611-30.639 21.521 5.636-.434 2.415-.643 3.263z" fill="#a8ac06" transform="translate(339.3799 753.2236)"/><path d="m0 0c-.643-.104-1.5-.21-2.591-.344-1.066-.133-1.861-.233-2.36-.31l-.969 6.534c1.59.19 3.493.36 5.721.499 3.19.207 5.093.192 5.643-.059.247-.406.576-1.297.943-2.682.159-.58.322-1.235.474-1.969-2.426-.786-4.713-1.331-6.861-1.669m-3.884 21.205c.803.125 1.284.108 1.467-.082.468-.523.911-2.122 1.335-4.724.296-1.804.323-2.929.095-3.312-.236-.384-.92-.646-2.007-.815-.358-.058-.826-.099-1.389-.159-.568-.055-.924-.078-1.005-.093l-1.391 8.507c1.325.364 2.279.58 2.895.678m11.824-12.917c-1.505.679-3.123 1.209-4.997 1.383-2.049.181-3.144.401-3.235.417 1.48.329 3.581 1.322 6.292 2.941.358.585.559 1.405.543 2.404 0 .41-.09 1.649-.282 3.773-.048.662-.261 1.134-.611 1.99-.462 1.152-1.083 1.752-1.67 2.036-.458.21-.929.517-1.411.747-.56.288-1.473.56-1.993.569-.827-.05-2.186.026-4.048-.267-3.527-.558-6.23-1.197-8.072-1.901l4.35-29.948 18.564 4.863c-.263 1.433-.494 2.872-.821 4.299-.616 2.88-1.514 4.955-2.609 6.694" fill="#fff64d" transform="translate(340.4912 752.9058)"/><path d="m0 0c-.077-.052-.248-.147-.695-.294-.72-.222-1.45-.36-2.238-.432-.403-.04-.64-.04-.783-.024-.068.195-.161.469-.161.469l-.169.495c-.005.022-.017.129-.017.129s-.002.06 0 .081c.221.061.603.137 1.287.199l2.079.028c.39-.034.579-.067.701-.087.016-.24.016-.428-.004-.564m7.75-.324c-.074.771-.801 3.091-.801 3.091-.65 2.082-1.22 3.275-2.348 3.635-1.215.392-2.979.453-5.717.204-3.322-.296-5.182-1.027-5.874-2.298-.252-.454-.597-1.37-.709-3.99-.072-1.671-.018-3.403.158-5.302.34-3.629.881-4.707 1.321-5.238.912-1.083 2.984-1.39 6.917-1.035l3.724.444 2.299.339.827 6.604-.456.558c-.36.143-1.19-.096-1.931-.169-.08-.003-3.925-.627-3.925-.627-.488-.038-1.053-.521-.981-1.311 0 0 .046-.096.061-.132-.576-.024-1.808-.075-2.624-.108-.128.435-.248 1.054-.337 1.582.218.011 4.706.656 6.883 1.345 2.404.765 3.026 1.101 3.317 1.572.003.01.008.016.018.029.015.03.054.056.063.09 0 0-.032-.037-.04-.037.108.185.181.422.155.754" fill="#a8ac06" transform="translate(322.7334 755.6914)"/><path d="m0 0v.02c-.08-.312-.559-.613-1.405-.885-.783-.239-1.606-.4-2.467-.481-.925-.084-1.399.075-1.684.186-.851.369-.673 2.48-.605 2.643.127.312.878.536 2.246.657.811.074 1.557.074 2.25.026.756-.057 1.649-.231 1.704-.833.058-.586.081-.866-.039-1.333m4.57 2.829c-.607 1.924-1.059 2.733-1.642 2.922-1.107.356-2.587.444-4.988.229-2.85-.256-4.516-.841-5.003-1.729-.314-.574-.508-1.761-.586-3.531-.07-1.662-.013-3.367.153-5.157.236-2.524.609-4.079 1.087-4.667.623-.728 2.605-.937 5.962-.639 1.075.097 2.293.251 3.676.443.5.07.982.151 1.483.216l.606 4.955c-.189.071-5.001-.561-4.987-.666.01-.063.196-.312.276-.548.08-.208.097-.494.102-.56.012-.109-.011-.155-.069-.159-.212-.044-.48-.067-.782-.097-.981-.087-2.297-.135-3.941-.154-.396.55-.74 2.749-.793 3.285-.008.133-.02.263-.017.412.507.004 1.054.031 1.616.081 1.975.178 4.023.604 6.131 1.269 1.909.608 2.545.912 2.464 1.103.023-.023.02 0 .007.112-.076.82-.29 1.358-.755 2.88" fill="#fff64d" transform="translate(324.4756 756.0254)"/><path d="m0 0s-.152.051-.313.098c-.188.425-.391 1.016-.547 2.034-.291 1.93-.14 2.603-.057 2.811.111.061.356.147.804.235.037-.466.154-1.608.329-2.74.127-.87.291-1.707.469-2.173 0 .002.055-.164.126-.374-.28.027-.554.055-.811.109m7.381-.378c-.047.227-.096.484-.133.774-.287 1.88-.526 4.877-.484 5.592.093 1.82.058 3.148-.104 4.187l-.103.736-.743.159c-1.076.237-2.655.152-4.962-.249-.348-.053-.914-.346-1.001-1.361-.437-.049-1.01-.09-1.898-.094-1.595-.022-2.485-.068-2.992-.142-1.997-.29-2.605-1.272-2.755-2.047-.663-3.314-.869-5.663-.637-7.188.248-1.628 1.007-2.958 2.261-3.952.697-.565 1.939-.72 4.294-.526 0 0 2.177.261 3.509.431.236-1.601.263-2.871.13-3.867-.442-.164-1.213-.362-1.889-.482.486 1.57.507 1.67.464 1.953l-.136.882-.978.03-3.606.188c-1.234.081-1.823.102-2.122-.594-.302-.58-.372-1.374-.203-2.506.142-.931.444-2.036.933-3.5.712-2.013.9-2.557 1.868-2.417.512.093 1.649.354 5.882 1.657 5.425 1.662 5.819 2.079 6.052 2.563.418.643.692 1.856.125 5.616l-.772 4.157z" fill="#a8ac06" transform="translate(307.8545 756.999)"/><path d="m0 0c-.904-.071-1.729-.033-2.487.134-.323.077-.625.174-.889.271-.353.653-.632 1.574-.815 2.749-.288 1.903-.229 3.133.177 3.7.411.375 1.249.598 2.54.707.103.014.152-.302.183-.915.024-.467.38-3.855.75-4.822.351-.954.541-1.522.569-1.703.012-.075-.01-.118-.028-.121m4.061.589c-.335 1.652-.693 5.667-.637 6.64.075 1.639.009 2.786-.142 3.803-.946.206-2.418.274-4.483-.086-.102-.015-.159-1.248-.268-1.259-.587-.125-1.535-.206-2.825-.215-1.405-.021-2.361-.061-2.836-.131-1.099-.157-1.72-.551-1.843-1.193-.628-3.148-.834-5.425-.622-6.82.205-1.35.816-2.447 1.861-3.274.442-.357 1.617-.445 3.513-.294.916.075 2.397.251 4.454.552.066.01.129-.306.228-.948.3-1.985.331-3.543.1-4.719-.074-.371-2.278-.87-3.129-.995-.302-.043-.653-.078-.995-.065-.348-.013-.491-.014-.433-.006.063.009.236.499.558 1.464.302.97.453 1.475.446 1.53-.063-.006-1.606.048-2.288.088-1.634.097-2.478.179-2.492.142-.207-.377-.237-1.019-.098-1.923.138-.919.446-2.02.884-3.313.403-1.128.607-1.7.665-1.687.717.125 2.615.662 5.722 1.61 3.449 1.062 5.273 1.753 5.412 2.054.426.558.418 2.221.003 4.948-.157 1.074-.41 2.443-.755 4.097" fill="#fff64d" transform="translate(310.7607 756.6343)"/><path d="m0 0c-.596 2.751-1.37 4.219-2.515 4.759-.448.23-1.305.486-3.798.384-1.312-.059-2.443-.191-3.481-.38-.045.277-.526 2.351-.526 2.351l-1.098-.451-4.675-1.91.25-1.045.196-.665c.305-1.403.492-4.063.564-7.912l.109-6.575s-.218-1.075 1.394-.712c1.077.24 3.65.951 5.244 1.399.849.175 1.003 1.793 1.003 1.793l-.309 1.281-.789 4.23c-.158 1.041-.231 1.659-.262 2.036.554.153.887.242 1.533.416.264-.866.574-2.02.9-3.364l.528-2.479.351-1.542c.368-1.211 1.688-.94 2.326-.803 1.332.28 2.263.554 2.917.854.841.374.875 1.294.766 3.468-.098 1.759-.31 3.393-.628 4.867" fill="#a8ac06" transform="translate(300.6787 754.1865)"/><path d="m0 0c-.501 2.305-1.161 3.571-2.03 4.065-.511.254-1.595.608-3.246.542-1.664-.075-4.322-.543-4.328-.593-.066.586-.571 2.137-.53 2.252-1.527-.683-2.649-1.183-3.677-1.546.092-.215.171-.503.245-.846.325-1.472.524-4.183.593-8.116.089-4.189.101-6.283.101-6.283 2.151.628 4.026 1.124 5.612 1.525-.072.129-.213.697-.429 1.701-.32 1.449-.585 2.865-.806 4.29-.259 1.698-.351 2.705-.247 3.022l3.315.911c.318-.855.741-2.321 1.249-4.438.466-1.948.656-3.298.858-3.956.045-.144.122-.254 1.048-.063 1.189.25 2.09.505 2.684.778.18.08.218.902.146 2.441-.093 1.624-.23 2.824-.558 4.314" fill="#fff64d" transform="translate(300.2651 754.4365)"/><path d="m0 0c-.32 1.612-.954 3.593-2.097 5.193-1.203 1.699-3.616 2.909-6.96 3.73l-4.757 1.065-2.92.636c-1.958.454-2.288.498-2.716 1.084-.427.585-.028 1.655 1.844 2.009 2.232.424 5.474.083 9.664-1.017.51-.134 1.038-.281 1.58-.439l1.895 2.651-1.37 10.027-1.348.12c-1.621.143-3.247.182-4.869.129-2.597-.083-5.186-.395-7.746-.881-2.775-.529-4.953-1.275-6.471-2.225l-.098-.068-.093-.073c-1.695-1.42-3.526-4.129-2.576-8.935.376-1.894 1.09-3.683 2.122-5.334.173-.275.349-.544.537-.81 1.194-1.645 3.357-2.852 6.443-3.604 0 0 2.004-.494 4.063-.867s5.238-.208 5.238-1.36c0-.576-1.206-1.056-3.75-1.529-2.455-.474-5.332-.563-8.54-.281l-2.467-2.35.184-1.115 1.623-9.82 7.2 1.661 9.297 2.146c2.368.532 4.298 1.758 5.705 3.652 1.388 1.861 1.867 4.147 1.383 6.605" fill="#a8ac06" transform="translate(259.9194 747.9248)"/><path d="m0 0c-.604-.269-1.227-.489-1.872-.595-.543-.085-.945-.058-1.157.057-.076.166-.245.58-.245.58l-.415 1.656c-.101.611-.086.845-.078.957.266.153.824.389 1.952.576.771.118 1.154.075 1.344.034.073-.2.187-.604.329-1.452.173-1.059.163-1.565.142-1.813m2.776 7.494c-5.291 1.236-14.202-1.519-14.546-1.933l-1.3-1.661 1.599-8.25c.992-5.969 1.18-8.142 1.159-8.916l-.025-1.413 5.839.785 1.489 2.322c-.038-.049-2.176 6.405-2.176 6.405 1.725-.089 3.142-.122 5.171.204 2.141.344 3.649.755 4.601 1.248.884.447.989 1.543 1.025 2.534.014 1.037-.032 2.113-.213 3.214-.493 2.959-1.257 5.141-2.623 5.461" fill="#a8ac06" transform="translate(268.0308 760.8579)"/><path d="m0 0c-.137.092-.279.134-.421.131-.497-.022-.849-.67-.767-1.422.055-.524.306-.992.646-1.217.138-.093.277-.136.418-.131.499.017.85.668.77 1.419-.057.524-.303.99-.646 1.22" fill="#a8ac06" transform="translate(297.4565 756.0732)"/><path d="m0 0c-.066.046-.135.063-.202.063-.241-.01-.412-.321-.371-.686.029-.253.146-.48.313-.588.066-.045.135-.068.201-.066.241.009.41.324.372.687-.026.254-.147.48-.313.59" fill="#a8ac06" transform="translate(289.502 758.0723)"/><path d="m0 0c-.181.123-.369.182-.555.173-.662-.024-1.129-.889-1.021-1.885.074-.696.404-1.319.856-1.62.185-.125.372-.182.559-.174.661.027 1.129.89 1.02 1.885-.075.697-.403 1.317-.859 1.621" fill="#a8ac06" transform="translate(290.0444 749.4263)"/><path d="m0 0c-.176-.534-.687-1.719-2.134-4.361-.187-.34-.376-.563-1.109-.327-.423.134-.818.372-1.189.649-.018.169-.039.526.049 1.268.117 1.003.372 2.087.739 3.2.263.795.474 1.217.62 1.458.064-.014.142-.03.142-.03l1.563-.639c.02-.005.982-.383 1.471-.573-.008-.128-.043-.318-.152-.645m5.715 2.967c-.422.854-7.02 4.764-11.908 3.05-.96-.391-1.712-1.564-2.458-3.806-.492-1.481-.922-3.302-1.287-5.408-.326-1.956-.486-3.385-.479-4.366.015-.835.507-1.617 1.527-2.397.845-.648 1.806-1.139 2.954-1.505 2.267-.722 4.208-.632 5.762.26 1.125.647 2.245 1.839 3.422 3.644 1.054 1.608 1.898 3.35 2.494 5.162.858 2.591.852 4.298-.023 5.369z" fill="#a8ac06" transform="translate(280.6953 759.8584)"/><path d="m0 0c-.278-.837-1.017-2.353-2.211-4.537-.484-.879-1.262-1.157-2.35-.812-.586.185-1.149.483-1.676.915-.251.199-.324.906-.185 2.095.132 1.12.409 2.267.787 3.4.363 1.095.724 1.81 1.074 2.15.124.119.464.109 1.006-.061.327-.106.875-.326 1.668-.674.772-.317 1.325-.538 1.654-.647.504-.162.578-.777.233-1.829m-1 5.03c-2.621.837-4.434 1.113-5.788.355-.619-.256-1.248-1.308-1.866-3.173-.489-1.478-.899-3.245-1.249-5.265-.309-1.848-.467-3.242-.458-4.188.003-.502.384-1.028 1.125-1.595.736-.565 1.599-1.008 2.627-1.335 1.961-.622 3.608-.58 4.904.169.959.549 1.987 1.641 3.078 3.31 1.032 1.587 1.53 3.257 2.088 4.95.726 2.195.775 3.64.153 4.411-.469.523-2.416 1.672-4.614 2.361" fill="#fff64d" transform="translate(282.7539 759.8267)"/><g fill="#a8ac06"><path d="m0 0c-.451.158-1.001-.299-1.199-.998-.14-.484-.089-.988.132-1.311.089-.129.2-.219.328-.262.449-.158 1 .3 1.198.997.139.487.089.987-.133 1.311-.09.131-.201.22-.326.263" transform="translate(274.6729 754.3345)"/><path d="m0 0c-.222.102-.528-.108-.662-.459-.095-.244-.093-.506.007-.68.039-.072.093-.121.155-.149.223-.103.528.108.664.458.095.245.092.504-.006.68-.04.071-.095.12-.158.15" transform="translate(282.9067 756.9487)"/><path d="m0 0c-.477.165-1.06-.318-1.271-1.056-.148-.518-.094-1.051.144-1.393.092-.135.209-.231.344-.278.474-.167 1.057.316 1.269 1.057.152.517.094 1.048-.138 1.39-.095.138-.215.232-.348.28" transform="translate(352.6953 761.4282)"/><path d="m0 0c-.239.108-.561-.114-.706-.485-.101-.259-.099-.536.011-.721.04-.077.098-.13.162-.161.241-.108.56.116.702.488.101.256.099.534-.006.72-.04.076-.099.13-.163.159" transform="translate(360.6387 763.7554)"/><path d="m0 0c-.089.02-.18.007-.271-.033-.236-.105-.438-.363-.532-.676-.134-.451.01-.885.311-.951.087-.019.177-.006.271.036.235.103.437.359.529.677.135.448-.008.883-.308.947" transform="translate(367.3779 757.8721)"/><path d="m0 0c-.15.03-.31.011-.476-.063-.409-.176-.765-.63-.926-1.178-.233-.786.016-1.547.546-1.659.147-.031.307-.011.471.063.41.178.766.63.926 1.18.233.784-.016 1.544-.541 1.657" transform="translate(368.1592 765.4771)"/><path d="m0 0c-.164-.013-.329-.075-.49-.189-.4-.278-.699-.798-.784-1.353-.12-.798.263-1.438.833-1.397.162.009.322.072.486.185.4.279.7.798.78 1.353.121.799-.261 1.441-.825 1.401" transform="translate(373.7256 749.8755)"/><path d="m0 0c-.075.052-.151.075-.229.073-.262-.014-.451-.383-.409-.81.034-.299.166-.563.352-.689.073-.052.147-.077.222-.071.267.013.458.383.412.809-.03.298-.162.562-.348.688" transform="translate(338.9717 762.084)"/><path d="m0 0c-.155.107-.314.158-.473.149-.558-.027-.946-.802-.855-1.693.065-.621.344-1.169.726-1.437.155-.106.315-.157.473-.15.554.028.947.804.857 1.695-.066.62-.344 1.17-.728 1.436" transform="translate(332.4805 766.3066)"/><path d="m0 0c-.174.122-.354.179-.535.171-.63-.032-1.076-.911-.97-1.923.075-.705.388-1.33.824-1.633.175-.122.355-.18.535-.169.632.03 1.08.912.971 1.925-.076.702-.387 1.327-.825 1.629" transform="translate(349.1758 754.1538)"/><path d="m0 0c-.187.127-.38.184-.575.174-.672-.048-1.131-.999-.995-2.076.094-.753.445-1.413.916-1.728.188-.126.384-.184.573-.169.676.044 1.13 1 .997 2.074-.094.752-.442 1.412-.916 1.725" transform="translate(344.0039 772.5283)"/><path d="m0 0c-.118.086-.248.127-.378.12-.448-.021-.763-.648-.687-1.366.048-.502.277-.943.584-1.16.127-.087.252-.127.38-.12.448.023.766.649.694 1.366-.058.501-.281.946-.593 1.16" transform="translate(327.7988 758.9238)"/><path d="m0 0c-.076.053-.153.078-.229.074-.267-.013-.458-.388-.412-.816.031-.299.165-.563.349-.694.075-.051.151-.077.228-.07.266.014.457.385.414.815-.031.299-.166.564-.35.691" transform="translate(323.9932 761.3799)"/><path d="m0 0c-.107.077-.219.111-.33.107-.395-.021-.67-.568-.604-1.197.041-.437.242-.826.51-1.013.112-.076.221-.112.334-.107.392.022.671.568.605 1.197-.046.439-.241.827-.515 1.013" transform="translate(321.5918 749.1196)"/><path d="m0 0c-.134.107-.277.173-.425.187-.528.063-.991-.504-.997-1.238-.01-.508.195-.993.527-1.262.133-.112.278-.176.427-.193.531-.06.988.507.996 1.24.01.51-.192.993-.528 1.266" transform="translate(312.7939 756.3628)"/><path d="m0 0c-.45.027-.835-.561-.846-1.28-.005-.505.166-.97.451-1.219.112-.1.236-.154.363-.162.449-.027.837.559.843 1.28.005.505-.165.972-.449 1.217-.112.102-.237.157-.362.164" transform="translate(303.5508 764.228)"/><path d="m0 0c-.262.016-.489-.327-.495-.75-.004-.294.098-.566.265-.711.062-.058.135-.091.209-.097.264-.014.489.328.497.751.003.296-.099.567-.265.712-.065.059-.137.091-.211.095" transform="translate(314.0977 751.6943)"/></g><path d="m0 0c-.276 1.383-.941 2.794-1.929 4.191-.898 1.276-2.834 2.383-5.853 3.118-2.51.629-5.068 1.112-7.656 1.705-2.538.591-3.906 1.298-4.072 2.145-.035.172-.061.337-.079.501-.264 2.216.83 3.569 3.344 4.048.19.036.386.065.586.092 2.775.359 6.61-.173 11.485-1.598l-1.477 9.352c-2.036.183-4.073.225-6.099.128-2.021-.1-4.034-.339-6.028-.718-2.605-.497-4.549-1.17-5.866-1.986-1.964-1.645-2.641-4.093-2.006-7.33.314-1.581.886-3.052 1.685-4.415.214-.364.444-.723.691-1.072.899-1.244 2.715-2.269 5.445-2.931 2.258-.54 4.561-.941 6.853-1.439 2.284-.52 3.488-1.227 3.625-2.107.26-1.664-1.416-2.853-5.009-3.536-2.799-.532-6.042-.608-9.707-.229l1.076-6.526.508-3.074 3.158.73 11.538 2.657c1.988.45 3.574 1.496 4.704 3.018 1.11 1.489 1.479 3.271 1.083 5.276" fill="#fff64d" transform="translate(259.2007 748.9395)"/><path d="m0 0c-.125.107-.261.166-.402.173-.498.033-.916-.575-.916-1.331 0-.528.198-1.019.512-1.28.126-.105.262-.164.404-.172.497-.033.915.578.915 1.334 0 .526-.197 1.016-.513 1.276" fill="#a8ac06" transform="translate(252.8003 764.9082)"/><path d="m0 0c-.124.071-.247.103-.366.087-.422-.044-.682-.616-.567-1.253.079-.443.319-.824.624-1.001.122-.069.247-.099.366-.084.421.043.683.617.568 1.253-.081.442-.32.825-.625.998" fill="#a8ac06" transform="translate(237.8242 758.9131)"/><path d="m0 0c-.189.13-.384.194-.576.186-.685-.018-1.177-.908-1.073-1.943.07-.72.402-1.367.871-1.682.191-.131.385-.194.576-.187.685.019 1.179.907 1.075 1.943-.072.723-.405 1.368-.873 1.683" fill="#a8ac06" transform="translate(256.5181 749.6631)"/><path d="m0 0c.055-.032.104-.053.156-.076.257-.119.515-.171.764-.144 1.063.112 1.718 1.558 1.43 3.155-.202 1.115-.805 2.079-1.573 2.517-.31.178-.617.251-.918.219-.714-.076-1.241-.751-1.425-1.671-.092-.45-.099-.958-.005-1.483.203-1.115.806-2.079 1.571-2.517" fill="#a8ac06" transform="translate(237.5332 764.0938)"/><path d="m0 0c-.191.141-.39.21-.59.21-.713-.001-1.251-.91-1.174-1.987.054-.749.384-1.43.859-1.772.193-.14.391-.21.592-.21.709.002 1.248.911 1.172 1.988-.054.752-.38 1.43-.859 1.771" fill="#a8ac06" transform="translate(241.4653 743.7319)"/><path d="m0 0c-.095.059-.196.081-.294.069-.339-.034-.548-.497-.456-1.009.065-.355.257-.663.504-.803.096-.056.196-.08.294-.07.338.036.549.497.456 1.009-.064.356-.256.665-.504.804" fill="#a8ac06" transform="translate(254.2061 744.2676)"/><path d="m0 0c-.766-.38-1.599-.647-2.491-.79-1.038-.163-1.752-.045-2.215.328-.138.116-.311.485-.523 1.093-.211.609-.36 1.213-.464 1.843-.175 1.051-.124 1.706.171 1.951.494.408 1.407.733 2.695.94 1.121.178 1.898.11 2.378-.209.228-.161.461-.886.677-2.181.292-1.772.212-2.769-.228-2.975m1.436 7.118c-1.32.604-8.894.495-14.075-1.72.429-2.181 1.54-8.497 1.536-8.585.004-.008 1.362-9.134 1.31-9.182l4.924.748s-2.346 7.131-2.733 8.538c1.995-.287 3.969-.164 6.579.252 2.015.324 3.439.709 4.239 1.132.23.116.349.622.379 1.529.009.9-.069 1.886-.25 2.979-.41 2.476-1.058 3.92-1.909 4.309" fill="#fff64d" transform="translate(269.5542 760.7983)"/><path d="m0 0c-.098.055-.197.078-.291.068-.34-.04-.542-.503-.443-1.007.064-.352.261-.657.507-.793.099-.054.197-.076.293-.066.337.041.539.501.442 1.006-.069.353-.265.658-.508.792" fill="#a8ac06" transform="translate(271.4575 765.4014)"/><path d="m0 0c-.11.063-.22.088-.323.078-.374-.046-.599-.557-.493-1.116.076-.389.295-.725.565-.877.109-.06.219-.086.322-.073.374.046.599.554.49 1.113-.075.391-.29.727-.561.875" fill="#a8ac06" transform="translate(261.0166 751.6025)"/><path d="m0 0c-.16.111-.33.179-.504.197-.614.072-1.113-.483-1.087-1.209.017-.507.276-.994.676-1.271.162-.112.332-.18.504-.198.614-.072 1.112.482 1.086 1.211-.021.509-.276.993-.675 1.27" fill="#a8ac06" transform="translate(261.7808 763.1284)"/><path d="m0 0 1.092.142-.981.017z" fill="#224093" transform="translate(256.0142 742.2358)"/><path d="m0 0-2.365.131c-.707-.251-1.436-.589-2.187-.987l3.812-.21 5.1.301c-.784.355-1.539.661-2.235.892l-2.125-.127z" fill="#224093" transform="translate(276.3354 721.1113)"/><path d="m0 0 8.618.543 5.17-.174c-2.018.317-4.156.538-6.373.596-2.878.076-5.328-.319-7.415-.965" fill="#224093" transform="translate(317.3525 722.5908)"/><path d="m0 0-4.411 1.969 1.95 9.033-1.121 5.091.327 4.071-.739-1.055-.326-4.084 1.118-5.092-1.949-9.032 4.413-1.967 13.262-.737c.751.398 1.48.737 2.187.988l-14.711.815z" fill="#224093" transform="translate(259.2593 722.0581)"/><path d="m0 0 .271.972-.386-1.131-28.363.95-29.455-1.854-18.795-1.111c.696-.231 1.451-.537 2.235-.892l15.82.935 20.837 1.31c2.087.646 4.537 1.04 7.415.965 2.217-.059 4.355-.279 6.373-.597l23.194-.771.854 1.224z" fill="#224093" transform="translate(355.1885 723.4121)"/><path d="m0 0c-.657-.043-1.33-.205-2.02-.451l2.365-.131 2.126.127c-.968.321-1.824.5-2.471.455" fill="#224093" transform="translate(275.9902 721.6934)"/><path d="m0 0 28.362-.95.387 1.131 1.592 5.707-2.236 14-6.912-.614-16.236-.499-14.655.691-7.89-1.998-12.819-.296-22.16.747-17.037.256-1.093-.142-.01-.014-.327-4.071 1.121-5.091-1.95-9.033 4.411-1.969 14.712-.815c.689.245 1.363.407 2.019.45.648.045 1.503-.134 2.471-.455l18.795 1.111 29.455 1.854z" fill="#224093" transform="translate(326.7109 724.2031)"/><path d="m0 0 8.188-.741 3.431.236-3.316-.078z" fill="#1959a6" transform="translate(288.8574 743.1841)"/><path d="m0 0-16.239-.498-14.333.244-.022-.004 14.237-.398 16.235.497 6.918.615 2.231-13.999-2.664-7.743.06-.003 2.722 7.904-2.233 13.999-6.912-.614z" fill="#1959a6" transform="translate(348.7656 744.7012)"/><path d="m0 0 1.284.167-1.271-.022z" fill="#1959a6" transform="translate(256.1123 742.2495)"/><path d="m0 0c-.522-.033-1.052-.144-1.593-.311l2.056-.112 1.606.095c-.803.24-1.512.367-2.069.328" fill="#1959a6" transform="translate(275.9902 721.6934)"/><path d="m0 0 28.298-.943 2.664 7.742-2.232 13.999-6.917-.614-16.236-.497-14.236.397-8.188-1.548-9.507-.216-3.432-.236-8.188.741-16.259 1.143-6.727-1.76-8.475-.15-1.284-.167-.316-3.942 1.121-5.09-1.951-9.035 4.415-1.967 15.016-.833c.541.166 1.071.277 1.593.31.557.04 1.266-.088 2.07-.328l19.317 1.143 29.454 1.851z" fill="#1959a6" transform="translate(326.8311 724.3589)"/><path d="m0 0c-4.74-.434-6.632-.171-7.263-.025.52.347 2.393 1.225 9.108 2.566 5.449 1.089 6.887 1.784 6.937 2.425.007.079-.005.155-.034.231-.797 2.104-15.987.864-20.489.198-4.835-.715-6.392-.155-8.543.619-2.368.851-5.319 1.915-13.03 1.99-9.297.089-12.65-1.112-16.891-2.633-2.676-.958-5.711-2.046-10.94-3.024-2.08-.391-3.787-.627-5.187-.761l-.281-1.294c1.641.161 3.59.46 5.935.897 5.379 1.009 8.485 2.122 11.23 3.107 4.062 1.454 7.266 2.603 16.195 2.517 7.336-.071 10.099-1.064 12.319-1.862 2.352-.849 4.208-1.519 9.582-.722 7.097 1.049 15.163 1 17.252.63-.551-.223-1.79-.617-4.547-1.167-2.766-.553-11.812-2.492-11.957-4.189l.026-.215c.399-1.214 4.179-1.107 10.143-.536l.705.066c4.576.419 11.256.519 18.332.629 5.347.079 10.807.162 15.393.394l.418 1.218c-4.657-.252-10.356-.339-15.915-.423-7.124-.107-13.851-.213-18.498-.636" fill="#224093" transform="translate(321.916 725.8521)"/><path d="m0 0c-4.893-.749-7.924-.08-8.084.289.025.152.847.843 4.219 1.59 4.243.948 7.47 2.925 7.718 4.108.126.632-.145 1.228-.756 1.676l-8.855-.271c-.353-.1-.699-.203-1.037-.312-5.2-1.692-10-1.539-15.564-1.366-3.748.118-7.616.242-12.07-.173-11.265-1.043-15.518-1.089-24.802-.964-6.62.088-8.751-.284-13.418-1.107-2.129-.374-4.787-.802-8.633-1.398-1.413-.218-2.647-.377-3.735-.489l-.015-.164.328-1.487c1.043.077 2.216.205 3.543.397 2.434.354 4.535.866 6.223 1.282l2.76.621c4.525.796 6.589 1.158 12.997 1.075l5.745-.123c5.827-.154 10.429-.275 19.224.537l1.652.158c3.619.341 7.031.667 10.207.565 5.536-.173 10.761-.339 16.317 1.469 3.432 1.117 5.605.965 6.423.494.277-.161.386-.362.335-.617-.124-.6-1.345-1.843-5.158-2.693-5.211-1.159-6.082-2.755-5.78-3.515.737-1.827 7.032-1.379 10.641-.826 6.042.923 12.066 1.013 15.836.824l-.112.699c-3.83.396-9.836.688-16.149-.279" fill="#224093" transform="translate(340.709 736.7324)"/><path d="m0 0 4.78.146c-1.122.276-2.9.182-4.78-.146" fill="#1959a6" transform="translate(337.7998 744.2109)"/><path d="m0 0c-4.851-.744-8.374-.169-8.663.55-.142.347.658 1.163 4.522 2.023 4.078.906 7.182 2.787 7.399 3.834.119.591-.176 1.126-.832 1.502-.181.104-.403.187-.655.25l-4.781-.146c-1.241-.217-2.519-.533-3.685-.911-5.301-1.724-10.156-1.57-15.778-1.394-3.72.117-7.571.239-11.987-.17-11.3-1.046-15.567-1.093-24.872-.969-6.562.087-8.676-.285-13.303-1.096-2.128-.376-4.777-.841-8.65-1.399-1.42-.205-2.673-.344-3.778-.433l.216-.981c1.028.068 2.175.185 3.455.37 3.887.562 6.83 1.523 8.967 1.901 4.566.801 6.646 1.168 13.112 1.08 9.349-.124 13.55-.634 24.899.414 4.355.405 8.252.844 11.944.727 5.479-.173 10.651-.336 16.105 1.437 3.624 1.18 5.949 1.002 6.92.445.423-.244.607-.578.528-.962-.175-.846-1.709-2.131-5.475-2.967-4.611-1.025-5.746-2.427-5.477-3.088.509-1.259 5.287-1.293 10.058-.562 5.862.895 11.988.892 15.971.663l-.091.567c-4.04.23-10.122.225-16.069-.685" fill="#1959a6" transform="translate(340.8096 736.1978)"/><path d="m0 0c-2.595-.198-5.135-.507-7.377-.779-3.09-.374-6.94-.838-7.608-.442.088.424 3.829.901 5.234 1.081l2.435.254c3.604.338 6 .626 6.449 1.491.168.317.233.831-.38 1.465-3.059 3.182-20.937 3.138-25.763 1.584-3.188-1.028-4.341-.678-8.64.617-.584.18-1.41.559-2.288.958-1.34.614-2.86 1.311-4.345 1.699-9.224 2.424-18.116-.673-24.606-2.936l-.276-.096c-3.656-1.27-7.341-2.43-10.394-3.136-1.675-.385-3.404-.787-5.263-1.296l-.245-1.131c.399.087.821.19 1.273.316 1.984.551 3.833.979 5.615 1.391 2.975.684 6.05 1.395 9.808 2.703 6.277 2.187 15.599 4.308 24.36 2.007l5.762-1.646c4.353-1.314 6.152-1.858 9.989-.618 4.978 1.603 19.234 1.286 21.367-.936.17-.175.158-.25.158-.252-.279-.536-3.474-.942-5.388-1.188-3.584-.456-6.68-.85-6.553-2.384.035-.366.262-.69.648-.921 1.295-.772 4.357-.4 9.002.162 2.243.272 4.753.576 7.28.769 3.239.246 6.916-.044 10.479-.322 2.343-.184 4.628-.361 6.742-.388l.439 1.268c-2.17 0-4.591.188-7.081.383-3.648.289-7.42.584-10.833.323" fill="#224093" transform="translate(338.7617 728.6182)"/><path d="m0 0-6.381-.403c.516-.106 1.06-.222 1.643-.347.065-.016 5.609.458 5.426.519-.234.081-.459.155-.688.231" fill="#224093" transform="translate(317.4092 723.6187)"/><path d="m0 0-.006-.003c-.859-.349-1.747-.707-2.753-.944-3.762-.883-8.06-1.527-9.766-1.575.416.25 1.155.636 2.48 1.207l.392.166c2.166.922 3.188 1.415 3.231 1.931l-.039.213c-.476.972-3.409.75-10.485.217l-3.681-.269c-5.884-.422-12.727-.709-14.887-.425-3.761.496-6.626.294-8.739-.156l-.156-.722.271-.12c2.516.509 5.488.801 7.69.067 2.426-.806 9.351-.312 16.05.169 3.172.229 8.737.628 10.532.469-.213-.125-.516-.281-1.033-.504-3.042-1.305-3.699-1.912-3.739-2.424l.023-.079 12.587.743c1.074.268 1.982.635 2.857.991 2.713 1.102 4.01 1.316 10.942-.123l6.381.402c-11.223 3.69-16.91 1.275-18.152.769" fill="#224093" transform="translate(299.2573 724.3872)"/><path d="m0 0c0 .006.002.017.014.036-.014.006-.034.012-.046.02.017-.011.034-.039.032-.056" fill="#1959a6" transform="translate(285.792 721.4014)"/><path d="m0 0c-6.244-.446-13.313-.953-15.44-.248-2.456.819-5.599.554-8.26.04l-.129-.594.04-.019c2.607.533 5.727.846 8.066.07 2.315-.773 9.186-.279 15.83.196 4.536.327 10.729.77 11.39.292.005.013.007.021.009.022-.004-.009.004-.026.011-.033-.005.004-.015.007-.02.011-.043-.07-.265-.344-1.605-.92-2.374-1.017-3.278-1.603-3.485-2.018l.988.059c.345.259 1.129.715 2.896 1.475 1.587.678 3.626 1.502 3.413 1.94-.424.858-5.172.339-13.704-.273" fill="#1959a6" transform="translate(278.6768 724.8296)"/><path d="m0 0c-.878-.356-1.786-.726-2.836-.973-1.381-.325-2.945-.64-4.445-.902l4.144.245c.342.076.547.123.561.126 1.117.262 2.053.642 2.964 1.012 2.552 1.037 4.594 1.538 10.714-.246l5.852.368c-7.922 2.07-14.288 1.453-16.954.37" fill="#1959a6" transform="translate(299.4624 723.9253)"/><path d="m0 0c.005-.004.015-.007.02-.012-.007.008-.015.025-.011.034-.002-.001-.004-.009-.009-.022" fill="#1959a6" transform="translate(290.1738 724.5669)"/><path d="m0 0c-5.836-.531-7.867-.037-7.945.204-.004.007-.05 1.031 9.589 2.957 5.36 1.074 6.815 1.773 6.62 2.277-.583 1.541-13.952.851-19.974-.041-4.981-.733-6.588-.155-8.816.646-2.329.841-5.229 1.887-12.845 1.958-9.198.087-12.51-1.098-16.703-2.6-2.694-.967-5.749-2.062-11.016-3.049-2.468-.462-4.435-.739-6.008-.887l-.124-.574c1.78.156 3.896.46 6.35.921 5.339.998 8.426 2.106 11.156 3.085 4.103 1.471 7.345 2.635 16.374 2.549 7.438-.073 10.253-1.086 12.513-1.9 2.275-.821 4.072-1.467 9.301-.694 7.697 1.138 17.465 1.086 18.164.38.007.008.007.014.01.018-.003-.005-.003-.023.004-.029-.002.002-.01.007-.014.011-.072-.108-.641-.615-5.224-1.534-7.016-1.402-11.964-3.047-11.643-4.036.417-1.271 7.849-.443 10.36-.216 4.587.421 11.285.522 18.371.628 5.175.08 10.464.159 14.954.374l.197.572c-4.529-.225-9.924-.307-15.201-.387-7.108-.107-13.822-.211-18.45-.633" fill="#1959a6" transform="translate(322.6367 725.7642)"/><path d="m0 0c-.003-.003-.003-.01-.01-.018.004-.003.013-.008.015-.01-.008.006-.008.024-.005.028" fill="#1959a6" transform="translate(329.2822 731.0137)"/><path d="m0 0c-2.573-.196-5.107-.502-7.347-.774-3.68-.447-7.158-.864-8.003-.364-.101.058-.15.132-.157.233-.064.751 3.069 1.152 5.585 1.47 2.962.382 8.023.555 8.533 1.536.177.345.071.725-.316 1.131-2.894 3.004-20.49 2.955-25.163 1.447-3.368-1.086-4.68-.689-9.014.621-1.514.459-4.175 2.01-6.611 2.65-9.165 2.405-18.037-.765-24.519-3.021-3.683-1.283-6.585-1.951-9.658-2.662-1.8-.415-3.66-.846-5.679-1.407-.109-.032-.216-.059-.322-.086l-.136-.63c.242.059.494.122.755.194 1.995.556 3.85.986 5.642 1.398 2.958.683 6.015 1.39 9.745 2.687 6.36 2.214 15.811 4.361 24.727 2.018 2.423-.637 4.293-1.201 5.797-1.655 4.325-1.307 5.943-1.796 9.598-.616 4.763 1.533 19.526 1.472 21.969-1.066.345-.357.25-.538.218-.601-.365-.702-3.214-1.066-5.729-1.386-3.368-.429-6.279-.802-6.172-2.026.017-.265.176-.491.451-.654 1.121-.668 4.266-.29 8.616.239 2.227.271 4.752.576 7.303.771 3.284.249 6.99-.042 10.574-.322 2.498-.195 4.88-.396 7.043-.415l.203.581c-2.215-.001-4.67.19-7.201.388-3.621.284-7.369.578-10.732.321" fill="#1959a6" transform="translate(338.5645 728.0972)"/><g clip-path="url(#t)"><path d="m0 0c-1.852.923-2.226 1.738-2.261 2.799-.034 1.06.432 1.659 1.021 1.675 1.043.032 1.171-1.449.972-3.661 1.794.135 2.977.052 2.977.052-.111.998.021 1.924-.123 3.102-.156 1.478-1.19 2.812-3.895 2.732-2.519-.077-4.035-1.307-3.958-3.85.071-2.163 1.417-3.246 3.083-4.178 1.611-.916 2.44-1.65 2.472-2.692.023-.743-.334-1.297-.952-1.313-1.204-.038-1.383 1.363-1.139 2.975 0 0-1.339-.102-3.083-.018.222-1.071-.052-2.584.515-3.569.624-1.144 2.01-1.705 3.725-1.652 2.438.074 4.031 1.445 3.961 3.609-.065 2.162-1.273 2.947-3.315 3.989" fill="#fff" transform="translate(264.1548 732.1367)"/></g><g clip-path="url(#u)"><path d="m0 0c-1.072-.033-1.604 1.574-1.68 4.84-.043 3.046.365 4.604 1.489 4.637 1.1.032 1.579-1.496 1.646-4.541.072-3.126-.41-4.905-1.455-4.936m1.916-2.85c-.617.04-.785.176-.805.776 1.677.454 2.572 1.824 3.076 3.744.455 1.738.462 4.985-.332 7.149-.763 2.08-2.105 2.963-4.115 2.902-2.011-.062-3.345-1.024-4.004-3.15-.706-2.208-.578-5.449-.07-7.159.567-1.846 1.468-3.123 3.09-3.516-.265-1.873.087-2.84 2.131-3.002 1.019-.069 9.781.196 10.983.35-.089 1.143.036 2.229.036 2.229-.666-.1-9.372-.362-9.99-.323" fill="#fff" transform="translate(271.9443 728.8179)"/></g><g clip-path="url(#v)"><path d="m0 0c-1.63-.183-3.294-.12-3.294-.12.342-2.376.644-8.622.462-10.478-.078-.974-.41-1.425-1.107-1.446-.752-.022-1.034.497-1.144 1.378-.336 2.172-.305 7.188-.054 10.282-1.742-.099-3.299-.057-3.299-.057.358-3.715-.007-8.301.281-10.604.257-2.156 1.697-3.547 4.267-3.469 2.543.08 3.792 1.285 4.018 3.433.296 2.63-.349 6.994-.13 11.081" fill="#fff" transform="translate(285.0288 741.459)"/></g><g clip-path="url(#w)"><path d="m0 0c-.697-.023-.945.19-.956.631-.028.82.34 3.678.578 4.629.095.283.311.271.4.012.295-.872.84-3.663.868-4.545.014-.48-.166-.706-.89-.727m-2.502 8.806c-.304-3.118-1.676-11.462-2.298-13.907 1.765.174 3.188.08 3.188.08-.105.818-.053 1.721.09 2.287.168.567.648.721 1.479.746.912.028 1.375-.181 1.526-.815.129-.617.233-1.458.285-2.218 2.194.168 3.375.101 3.375.101-.935 2.419-2.819 11.203-3.088 13.841-1.39-.141-3.293-.156-4.557-.115" fill="#fff" transform="translate(289.5498 729.3442)"/></g><g clip-path="url(#x)"><path d="m0 0c-.375-.012-.513.223-.584.722-.085.879-.117 2.862-.094 3.728.038.519.14.686.516.697.939.028 1.72-.991 1.764-2.376.052-1.582-.772-2.75-1.602-2.771m2.896-.817c1.149.958 1.752 2.177 1.705 3.678-.107 3.469-2.655 5.137-8.61 4.332.401-2.431.753-10.304.517-13.86 1.606.151 3.347.101 3.347.101-.209.738-.475 3.215-.341 4.1.045.365.391.413.586.081.403-.833 1.207-3.312 1.483-4.468 1.98.181 3.828.218 3.828.218-.845 1.299-2.355 4.179-2.709 5.132-.09.275-.071.456.194.686" fill="#fff" transform="translate(297.9614 733.957)"/></g><g clip-path="url(#y)"><path d="m0 0c-.986-.13-2.007-.161-2.864-.107-.754.057-1.138.266-1.32.962-.094.438-.139.999-.122 1.359 0 .841.368 1.095 1.034 1.214.772.145 1.47.145 2.36.089 0 0-.193.999-.106 2.368-.932-.111-1.469-.127-2.246-.113-.888.037-1.191.348-1.204 1.51-.009 1.221.492 1.5 1.267 1.582.802.106 1.604.128 2.81.126 0 0-.114 1.138-.02 2.285-2.003-.162-4.87-.269-7.15-.198.371-3.237.645-10.263.402-13.702 2.354.174 4.926.27 7.262.261 0 0-.166.998-.103 2.364" fill="#fff" transform="translate(310.4424 727.8354)"/></g><g clip-path="url(#z)"><path d="m0 0c-.4-.011-.597.263-.639.821-.09 1.021-.133 3.225-.106 4.228.005.582.135.786.509.797.965.029 1.673-1.151 1.721-2.754.053-1.642-.656-3.066-1.485-3.092m-4.026 7.898c.342-2.435.698-10.345.537-13.779 1.605.169 3.292.122 3.292.122-.207.732-.353 1.934-.318 2.558.009.658.214.825.882 1.006 3.003.794 4.153 2.611 4.065 5.434-.119 3.808-2.505 5.442-8.458 4.659" fill="#fff" transform="translate(314.7773 733.8794)"/></g><g clip-path="url(#A)"><path d="m0 0c-.691-.021-.942.189-.956.632-.023.821.34 3.676.578 4.63.101.28.313.268.399.011.297-.874.841-3.664.872-4.545.012-.481-.172-.708-.893-.728m-2.499 8.806c-.306-3.118-1.679-11.461-2.3-13.906 1.768.177 3.189.079 3.189.079-.107.817-.055 1.722.091 2.29.166.564.646.719 1.478.743.909.026 1.373-.179 1.522-.816.131-.615.238-1.456.288-2.217 2.194.166 3.377.104 3.377.104-.934 2.417-2.821 11.201-3.091 13.838-1.391-.139-3.294-.158-4.554-.115" fill="#fff" transform="translate(322.5967 731.1953)"/></g><g clip-path="url(#B)"><path d="m0 0s-1.608-.169-3.353-.062c.243-1.658.52-5.459.453-6.623-.041-.482-.312-.452-.509-.095-.709 1.22-1.77 4.297-2.168 5.909 0 0-1.553-.126-3.298-.1.386-2.837.66-9.945.458-13.68 0 0 1.708.152 3.347.101-.26 1.476-.566 5.215-.517 6.299.01.542.276.57.557.116.677-1.057 1.82-4.136 2.216-5.684 1.82.154 3.165.096 3.165.096-.447 2.994-.663 10.766-.351 13.723" fill="#fff" transform="translate(336.4756 742.6279)"/></g><g clip-path="url(#C)"><path d="m0 0c-2.432-.19-5.674-.27-7.874-.256.165-1.098.127-2.343.127-2.343 1.841.258 2.41.073 2.576-.843.197-1.218.399-7.67.249-10.58 1.686.171 3.295.142 3.295.142-.265 2.475-.672 9.44-.546 10.627.054.826.473 1.059 2.242.971 0 0-.137 1.119-.069 2.282" fill="#fff" transform="translate(344.9355 741.0957)"/></g><g clip-path="url(#D)"><path d="m0 0c-1.855.925-2.23 1.737-2.261 2.798-.036 1.06.432 1.658 1.021 1.675 1.045.032 1.17-1.446.968-3.661 1.793.136 2.982.054 2.982.054-.113.998.019 1.924-.129 3.103-.15 1.475-1.186 2.809-3.894 2.728-2.517-.076-4.032-1.307-3.954-3.848.068-2.163 1.415-3.247 3.082-4.178 1.611-.915 2.439-1.65 2.471-2.693.023-.742-.336-1.297-.945-1.313-1.211-.038-1.391 1.363-1.144 2.973 0 0-1.34-.1-3.087-.013.223-1.074-.049-2.586.518-3.57.622-1.147 2.011-1.708 3.726-1.654 2.436.072 4.03 1.446 3.963 3.61-.07 2.162-1.274 2.949-3.317 3.989" fill="#fff" transform="translate(350.499 734.75)"/></g></g></svg>